<svg xmlns="http://www.w3.org/2000/svg" width="2560" height="1440" viewBox="0 0 2560 1440">
<rect width="2560" height="1440" fill="#FAF8F3"/>
<g stroke="#0E0E0E" stroke-width="1.8" fill="none" opacity="0.18" stroke-linecap="square">
<polyline points="-300.0,-259.8 -150.0,-519.6 0.0,-259.8"/>
<polyline points="-300.0,-139.8 -150.0,-399.6 0.0,-139.8"/>
<polyline points="-300.0,-19.8 -150.0,-279.6 0.0,-19.8"/>
<polyline points="-300.0,100.2 -150.0,-159.6 0.0,100.2"/>
<polyline points="-300.0,220.2 -150.0,-39.6 0.0,220.2"/>
<polyline points="-300.0,340.2 -150.0,80.4 0.0,340.2"/>
<polyline points="-300.0,460.2 -150.0,200.4 0.0,460.2"/>
<polyline points="-300.0,580.2 -150.0,320.4 0.0,580.2"/>
<polyline points="-300.0,700.2 -150.0,440.4 0.0,700.2"/>
<polyline points="-300.0,820.2 -150.0,560.4 0.0,820.2"/>
<polyline points="-300.0,940.2 -150.0,680.4 0.0,940.2"/>
<polyline points="-300.0,1060.2 -150.0,800.4 0.0,1060.2"/>
<polyline points="-300.0,1180.2 -150.0,920.4 0.0,1180.2"/>
<polyline points="-300.0,1300.2 -150.0,1040.4 0.0,1300.2"/>
<polyline points="-300.0,1420.2 -150.0,1160.4 0.0,1420.2"/>
<polyline points="-300.0,1540.2 -150.0,1280.4 0.0,1540.2"/>
<polyline points="-300.0,1660.2 -150.0,1400.4 0.0,1660.2"/>
<polyline points="-300.0,1780.2 -150.0,1520.4 0.0,1780.2"/>
<polyline points="-300.0,1900.2 -150.0,1640.4 0.0,1900.2"/>
<polyline points="0.0,-259.8 150.0,-519.6 300.0,-259.8"/>
<polyline points="0.0,-139.8 150.0,-399.6 300.0,-139.8"/>
<polyline points="0.0,-19.8 150.0,-279.6 300.0,-19.8"/>
<polyline points="0.0,100.2 150.0,-159.6 300.0,100.2"/>
<polyline points="0.0,220.2 150.0,-39.6 300.0,220.2"/>
<polyline points="0.0,340.2 150.0,80.4 300.0,340.2"/>
<polyline points="0.0,460.2 150.0,200.4 300.0,460.2"/>
<polyline points="0.0,580.2 150.0,320.4 300.0,580.2"/>
<polyline points="0.0,700.2 150.0,440.4 300.0,700.2"/>
<polyline points="0.0,820.2 150.0,560.4 300.0,820.2"/>
<polyline points="0.0,940.2 150.0,680.4 300.0,940.2"/>
<polyline points="0.0,1060.2 150.0,800.4 300.0,1060.2"/>
<polyline points="0.0,1180.2 150.0,920.4 300.0,1180.2"/>
<polyline points="0.0,1300.2 150.0,1040.4 300.0,1300.2"/>
<polyline points="0.0,1420.2 150.0,1160.4 300.0,1420.2"/>
<polyline points="0.0,1540.2 150.0,1280.4 300.0,1540.2"/>
<polyline points="0.0,1660.2 150.0,1400.4 300.0,1660.2"/>
<polyline points="0.0,1780.2 150.0,1520.4 300.0,1780.2"/>
<polyline points="0.0,1900.2 150.0,1640.4 300.0,1900.2"/>
<polyline points="300.0,-259.8 450.0,-519.6 600.0,-259.8"/>
<polyline points="300.0,-139.8 450.0,-399.6 600.0,-139.8"/>
<polyline points="300.0,-19.8 450.0,-279.6 600.0,-19.8"/>
<polyline points="300.0,100.2 450.0,-159.6 600.0,100.2"/>
<polyline points="300.0,220.2 450.0,-39.6 600.0,220.2"/>
<polyline points="300.0,340.2 450.0,80.4 600.0,340.2"/>
<polyline points="300.0,460.2 450.0,200.4 600.0,460.2"/>
<polyline points="300.0,580.2 450.0,320.4 600.0,580.2"/>
<polyline points="300.0,700.2 450.0,440.4 600.0,700.2"/>
<polyline points="300.0,820.2 450.0,560.4 600.0,820.2"/>
<polyline points="300.0,940.2 450.0,680.4 600.0,940.2"/>
<polyline points="300.0,1060.2 450.0,800.4 600.0,1060.2"/>
<polyline points="300.0,1180.2 450.0,920.4 600.0,1180.2"/>
<polyline points="300.0,1300.2 450.0,1040.4 600.0,1300.2"/>
<polyline points="300.0,1420.2 450.0,1160.4 600.0,1420.2"/>
<polyline points="300.0,1540.2 450.0,1280.4 600.0,1540.2"/>
<polyline points="300.0,1660.2 450.0,1400.4 600.0,1660.2"/>
<polyline points="300.0,1780.2 450.0,1520.4 600.0,1780.2"/>
<polyline points="300.0,1900.2 450.0,1640.4 600.0,1900.2"/>
<polyline points="600.0,-259.8 750.0,-519.6 900.0,-259.8"/>
<polyline points="600.0,-139.8 750.0,-399.6 900.0,-139.8"/>
<polyline points="600.0,-19.8 750.0,-279.6 900.0,-19.8"/>
<polyline points="600.0,100.2 750.0,-159.6 900.0,100.2"/>
<polyline points="600.0,220.2 750.0,-39.6 900.0,220.2"/>
<polyline points="600.0,340.2 750.0,80.4 900.0,340.2"/>
<polyline points="600.0,460.2 750.0,200.4 900.0,460.2"/>
<polyline points="600.0,580.2 750.0,320.4 900.0,580.2"/>
<polyline points="600.0,700.2 750.0,440.4 900.0,700.2"/>
<polyline points="600.0,820.2 750.0,560.4 900.0,820.2"/>
<polyline points="600.0,940.2 750.0,680.4 900.0,940.2"/>
<polyline points="600.0,1060.2 750.0,800.4 900.0,1060.2"/>
<polyline points="600.0,1180.2 750.0,920.4 900.0,1180.2"/>
<polyline points="600.0,1300.2 750.0,1040.4 900.0,1300.2"/>
<polyline points="600.0,1420.2 750.0,1160.4 900.0,1420.2"/>
<polyline points="600.0,1540.2 750.0,1280.4 900.0,1540.2"/>
<polyline points="600.0,1660.2 750.0,1400.4 900.0,1660.2"/>
<polyline points="600.0,1780.2 750.0,1520.4 900.0,1780.2"/>
<polyline points="600.0,1900.2 750.0,1640.4 900.0,1900.2"/>
<polyline points="900.0,-259.8 1050.0,-519.6 1200.0,-259.8"/>
<polyline points="900.0,-139.8 1050.0,-399.6 1200.0,-139.8"/>
<polyline points="900.0,-19.8 1050.0,-279.6 1200.0,-19.8"/>
<polyline points="900.0,100.2 1050.0,-159.6 1200.0,100.2"/>
<polyline points="900.0,220.2 1050.0,-39.6 1200.0,220.2"/>
<polyline points="900.0,340.2 1050.0,80.4 1200.0,340.2"/>
<polyline points="900.0,460.2 1050.0,200.4 1200.0,460.2"/>
<polyline points="900.0,580.2 1050.0,320.4 1200.0,580.2"/>
<polyline points="900.0,700.2 1050.0,440.4 1200.0,700.2"/>
<polyline points="900.0,820.2 1050.0,560.4 1200.0,820.2"/>
<polyline points="900.0,940.2 1050.0,680.4 1200.0,940.2"/>
<polyline points="900.0,1060.2 1050.0,800.4 1200.0,1060.2"/>
<polyline points="900.0,1180.2 1050.0,920.4 1200.0,1180.2"/>
<polyline points="900.0,1300.2 1050.0,1040.4 1200.0,1300.2"/>
<polyline points="900.0,1420.2 1050.0,1160.4 1200.0,1420.2"/>
<polyline points="900.0,1540.2 1050.0,1280.4 1200.0,1540.2"/>
<polyline points="900.0,1660.2 1050.0,1400.4 1200.0,1660.2"/>
<polyline points="900.0,1780.2 1050.0,1520.4 1200.0,1780.2"/>
<polyline points="900.0,1900.2 1050.0,1640.4 1200.0,1900.2"/>
<polyline points="1200.0,-259.8 1350.0,-519.6 1500.0,-259.8"/>
<polyline points="1200.0,-139.8 1350.0,-399.6 1500.0,-139.8"/>
<polyline points="1200.0,-19.8 1350.0,-279.6 1500.0,-19.8"/>
<polyline points="1200.0,100.2 1350.0,-159.6 1500.0,100.2"/>
<polyline points="1200.0,220.2 1350.0,-39.6 1500.0,220.2"/>
<polyline points="1200.0,340.2 1350.0,80.4 1500.0,340.2"/>
<polyline points="1200.0,460.2 1350.0,200.4 1500.0,460.2"/>
<polyline points="1200.0,580.2 1350.0,320.4 1500.0,580.2"/>
<polyline points="1200.0,700.2 1350.0,440.4 1500.0,700.2"/>
<polyline points="1200.0,820.2 1350.0,560.4 1500.0,820.2"/>
<polyline points="1200.0,940.2 1350.0,680.4 1500.0,940.2"/>
<polyline points="1200.0,1060.2 1350.0,800.4 1500.0,1060.2"/>
<polyline points="1200.0,1180.2 1350.0,920.4 1500.0,1180.2"/>
<polyline points="1200.0,1300.2 1350.0,1040.4 1500.0,1300.2"/>
<polyline points="1200.0,1420.2 1350.0,1160.4 1500.0,1420.2"/>
<polyline points="1200.0,1540.2 1350.0,1280.4 1500.0,1540.2"/>
<polyline points="1200.0,1660.2 1350.0,1400.4 1500.0,1660.2"/>
<polyline points="1200.0,1780.2 1350.0,1520.4 1500.0,1780.2"/>
<polyline points="1200.0,1900.2 1350.0,1640.4 1500.0,1900.2"/>
<polyline points="1500.0,-259.8 1650.0,-519.6 1800.0,-259.8"/>
<polyline points="1500.0,-139.8 1650.0,-399.6 1800.0,-139.8"/>
<polyline points="1500.0,-19.8 1650.0,-279.6 1800.0,-19.8"/>
<polyline points="1500.0,100.2 1650.0,-159.6 1800.0,100.2"/>
<polyline points="1500.0,220.2 1650.0,-39.6 1800.0,220.2"/>
<polyline points="1500.0,340.2 1650.0,80.4 1800.0,340.2"/>
<polyline points="1500.0,460.2 1650.0,200.4 1800.0,460.2"/>
<polyline points="1500.0,580.2 1650.0,320.4 1800.0,580.2"/>
<polyline points="1500.0,700.2 1650.0,440.4 1800.0,700.2"/>
<polyline points="1500.0,820.2 1650.0,560.4 1800.0,820.2"/>
<polyline points="1500.0,940.2 1650.0,680.4 1800.0,940.2"/>
<polyline points="1500.0,1060.2 1650.0,800.4 1800.0,1060.2"/>
<polyline points="1500.0,1180.2 1650.0,920.4 1800.0,1180.2"/>
<polyline points="1500.0,1300.2 1650.0,1040.4 1800.0,1300.2"/>
<polyline points="1500.0,1420.2 1650.0,1160.4 1800.0,1420.2"/>
<polyline points="1500.0,1540.2 1650.0,1280.4 1800.0,1540.2"/>
<polyline points="1500.0,1660.2 1650.0,1400.4 1800.0,1660.2"/>
<polyline points="1500.0,1780.2 1650.0,1520.4 1800.0,1780.2"/>
<polyline points="1500.0,1900.2 1650.0,1640.4 1800.0,1900.2"/>
<polyline points="1800.0,-259.8 1950.0,-519.6 2100.0,-259.8"/>
<polyline points="1800.0,-139.8 1950.0,-399.6 2100.0,-139.8"/>
<polyline points="1800.0,-19.8 1950.0,-279.6 2100.0,-19.8"/>
<polyline points="1800.0,100.2 1950.0,-159.6 2100.0,100.2"/>
<polyline points="1800.0,220.2 1950.0,-39.6 2100.0,220.2"/>
<polyline points="1800.0,340.2 1950.0,80.4 2100.0,340.2"/>
<polyline points="1800.0,460.2 1950.0,200.4 2100.0,460.2"/>
<polyline points="1800.0,580.2 1950.0,320.4 2100.0,580.2"/>
<polyline points="1800.0,700.2 1950.0,440.4 2100.0,700.2"/>
<polyline points="1800.0,820.2 1950.0,560.4 2100.0,820.2"/>
<polyline points="1800.0,940.2 1950.0,680.4 2100.0,940.2"/>
<polyline points="1800.0,1060.2 1950.0,800.4 2100.0,1060.2"/>
<polyline points="1800.0,1180.2 1950.0,920.4 2100.0,1180.2"/>
<polyline points="1800.0,1300.2 1950.0,1040.4 2100.0,1300.2"/>
<polyline points="1800.0,1420.2 1950.0,1160.4 2100.0,1420.2"/>
<polyline points="1800.0,1540.2 1950.0,1280.4 2100.0,1540.2"/>
<polyline points="1800.0,1660.2 1950.0,1400.4 2100.0,1660.2"/>
<polyline points="1800.0,1780.2 1950.0,1520.4 2100.0,1780.2"/>
<polyline points="1800.0,1900.2 1950.0,1640.4 2100.0,1900.2"/>
<polyline points="2100.0,-259.8 2250.0,-519.6 2400.0,-259.8"/>
<polyline points="2100.0,-139.8 2250.0,-399.6 2400.0,-139.8"/>
<polyline points="2100.0,-19.8 2250.0,-279.6 2400.0,-19.8"/>
<polyline points="2100.0,100.2 2250.0,-159.6 2400.0,100.2"/>
<polyline points="2100.0,220.2 2250.0,-39.6 2400.0,220.2"/>
<polyline points="2100.0,340.2 2250.0,80.4 2400.0,340.2"/>
<polyline points="2100.0,460.2 2250.0,200.4 2400.0,460.2"/>
<polyline points="2100.0,580.2 2250.0,320.4 2400.0,580.2"/>
<polyline points="2100.0,700.2 2250.0,440.4 2400.0,700.2"/>
<polyline points="2100.0,820.2 2250.0,560.4 2400.0,820.2"/>
<polyline points="2100.0,940.2 2250.0,680.4 2400.0,940.2"/>
<polyline points="2100.0,1060.2 2250.0,800.4 2400.0,1060.2"/>
<polyline points="2100.0,1180.2 2250.0,920.4 2400.0,1180.2"/>
<polyline points="2100.0,1300.2 2250.0,1040.4 2400.0,1300.2"/>
<polyline points="2100.0,1420.2 2250.0,1160.4 2400.0,1420.2"/>
<polyline points="2100.0,1540.2 2250.0,1280.4 2400.0,1540.2"/>
<polyline points="2100.0,1660.2 2250.0,1400.4 2400.0,1660.2"/>
<polyline points="2100.0,1780.2 2250.0,1520.4 2400.0,1780.2"/>
<polyline points="2100.0,1900.2 2250.0,1640.4 2400.0,1900.2"/>
<polyline points="2400.0,-259.8 2550.0,-519.6 2700.0,-259.8"/>
<polyline points="2400.0,-139.8 2550.0,-399.6 2700.0,-139.8"/>
<polyline points="2400.0,-19.8 2550.0,-279.6 2700.0,-19.8"/>
<polyline points="2400.0,100.2 2550.0,-159.6 2700.0,100.2"/>
<polyline points="2400.0,220.2 2550.0,-39.6 2700.0,220.2"/>
<polyline points="2400.0,340.2 2550.0,80.4 2700.0,340.2"/>
<polyline points="2400.0,460.2 2550.0,200.4 2700.0,460.2"/>
<polyline points="2400.0,580.2 2550.0,320.4 2700.0,580.2"/>
<polyline points="2400.0,700.2 2550.0,440.4 2700.0,700.2"/>
<polyline points="2400.0,820.2 2550.0,560.4 2700.0,820.2"/>
<polyline points="2400.0,940.2 2550.0,680.4 2700.0,940.2"/>
<polyline points="2400.0,1060.2 2550.0,800.4 2700.0,1060.2"/>
<polyline points="2400.0,1180.2 2550.0,920.4 2700.0,1180.2"/>
<polyline points="2400.0,1300.2 2550.0,1040.4 2700.0,1300.2"/>
<polyline points="2400.0,1420.2 2550.0,1160.4 2700.0,1420.2"/>
<polyline points="2400.0,1540.2 2550.0,1280.4 2700.0,1540.2"/>
<polyline points="2400.0,1660.2 2550.0,1400.4 2700.0,1660.2"/>
<polyline points="2400.0,1780.2 2550.0,1520.4 2700.0,1780.2"/>
<polyline points="2400.0,1900.2 2550.0,1640.4 2700.0,1900.2"/>
<polyline points="2700.0,-259.8 2850.0,-519.6 3000.0,-259.8"/>
<polyline points="2700.0,-139.8 2850.0,-399.6 3000.0,-139.8"/>
<polyline points="2700.0,-19.8 2850.0,-279.6 3000.0,-19.8"/>
<polyline points="2700.0,100.2 2850.0,-159.6 3000.0,100.2"/>
<polyline points="2700.0,220.2 2850.0,-39.6 3000.0,220.2"/>
<polyline points="2700.0,340.2 2850.0,80.4 3000.0,340.2"/>
<polyline points="2700.0,460.2 2850.0,200.4 3000.0,460.2"/>
<polyline points="2700.0,580.2 2850.0,320.4 3000.0,580.2"/>
<polyline points="2700.0,700.2 2850.0,440.4 3000.0,700.2"/>
<polyline points="2700.0,820.2 2850.0,560.4 3000.0,820.2"/>
<polyline points="2700.0,940.2 2850.0,680.4 3000.0,940.2"/>
<polyline points="2700.0,1060.2 2850.0,800.4 3000.0,1060.2"/>
<polyline points="2700.0,1180.2 2850.0,920.4 3000.0,1180.2"/>
<polyline points="2700.0,1300.2 2850.0,1040.4 3000.0,1300.2"/>
<polyline points="2700.0,1420.2 2850.0,1160.4 3000.0,1420.2"/>
<polyline points="2700.0,1540.2 2850.0,1280.4 3000.0,1540.2"/>
<polyline points="2700.0,1660.2 2850.0,1400.4 3000.0,1660.2"/>
<polyline points="2700.0,1780.2 2850.0,1520.4 3000.0,1780.2"/>
<polyline points="2700.0,1900.2 2850.0,1640.4 3000.0,1900.2"/>
</g></svg>